<svg width="40" height="40" xmlns="http://www.w3.org/2000/svg" fill="none">

 <g>
  <title>Layer 1</title>
  <path id="svg_12" fill="#31B96D" d="m37.94526,19.35499c0.1903,9.8202 -7.8466,17.8574 -17.4339,17.8574l-14.74561,0c-1.3798,0 -2.50188,-1.1453 -2.50188,-2.5627l0,-5.1618l9.21849,0c2.601,0 5.1426,-1.0966 6.9704,-3.0094c1.808,-1.8885 2.7755,-4.3618 2.7239,-6.9651c-0.1031,-5.2797 -4.3813,-9.57241 -9.5397,-9.57241l-9.37309,0l0,-5.16593c0,-1.41332 1.12208,-2.56266 2.50188,-2.56266l15.09851,0c9.3216,0 16.8947,7.6433 17.081,17.1426z"/>
  <path id="svg_13" fill="#A4E766" d="m12.63706,11.97167l-10.64588,0c-0.6106,0 -1.10622,0.50762 -1.10622,1.13312l0,13.2194c0,0.6254 0.49562,1.1331 1.10622,1.1331l10.49128,0c4.2425,0 7.799,-3.5577 7.7158,-7.9032c-0.0833,-4.2034 -3.4376,-7.58242 -7.5612,-7.58242zm2.7715,9.21502c-0.2101,0.4183 -0.5115,0.7432 -0.9,0.9706c-0.3926,0.2275 -0.8485,0.3412 -1.3759,0.3412c-0.5273,0 -0.9516,-0.1137 -1.3441,-0.3412c-0.3886,-0.2274 -0.6939,-0.5523 -0.91589,-0.9706c-0.22204,-0.4224 -0.32909,-0.9016 -0.32909,-1.4418c0,-0.5401 0.10705,-1.0518 0.32909,-1.4701c0.22199,-0.4224 0.52729,-0.7514 0.91589,-0.9869c0.3925,-0.2396 0.8406,-0.3574 1.3441,-0.3574c0.5036,0 0.9794,0.1137 1.36,0.3411c0.3767,0.2234 0.678,0.5483 0.9001,0.9707c0.222,0.4183 0.329,0.9097 0.329,1.4702c0,0.5604 -0.103,1.0518 -0.3132,1.4742z"/>
 </g>
</svg>