<svg width="200" height="35" viewBox="0 0 200 35" fill="none" xmlns="http://www.w3.org/2000/svg">
<path d="M64.5892 7.82588C63.4949 6.81057 62.2023 6.03486 60.7194 5.49472C59.2326 4.95457 57.607 4.68652 55.8386 4.68652H46.3584V27.7261H55.8981C57.6466 27.7261 59.2564 27.458 60.7313 26.9179C62.2063 26.3778 63.4909 25.602 64.5853 24.5867C65.6796 23.5714 66.5281 22.3612 67.1308 20.9478C67.7295 19.5345 68.0308 17.9547 68.0308 16.2083C68.0308 14.462 67.7295 12.8822 67.1308 11.4688C66.5321 10.0555 65.6836 8.8412 64.5853 7.82994L64.5892 7.82588ZM60.8939 19.5426C60.43 20.4483 59.7679 21.1225 58.9035 21.5651C58.0391 22.0078 57.0202 22.2271 55.8386 22.2271H52.6785V10.1855H55.8386C57.0162 10.1855 58.0352 10.4048 58.8876 10.8475C59.7401 11.2901 60.4062 11.9521 60.878 12.8375C61.3538 13.7228 61.5878 14.8316 61.5878 16.1718C61.5878 17.512 61.3578 18.6329 60.8939 19.5386V19.5426Z" fill="#31B96D"/>
<path d="M82.2808 12.5004C80.9525 11.7775 79.4379 11.416 77.733 11.416C76.0281 11.416 74.5055 11.7775 73.1693 12.5004C71.8332 13.2233 70.7825 14.2102 70.0251 15.461C69.2678 16.7119 68.8872 18.1374 68.8872 19.7335C68.8872 21.3296 69.2718 22.7632 70.041 24.0384C70.8102 25.3096 71.8609 26.3087 73.2011 27.0316C74.5373 27.7545 76.0598 28.1159 77.7647 28.1159C79.4697 28.1159 80.9882 27.7545 82.3125 27.0316C83.6368 26.3087 84.6836 25.3096 85.4409 24.0384C86.1982 22.7673 86.5788 21.3296 86.5788 19.7335C86.5788 18.1374 86.1942 16.7119 85.425 15.461C84.6558 14.2102 83.6091 13.2233 82.2808 12.5004ZM80.0049 21.2362C79.7948 21.6585 79.4934 21.9794 79.1049 22.2068C78.7163 22.4342 78.2564 22.5479 77.729 22.5479C77.2017 22.5479 76.7775 22.4342 76.3849 22.2068C75.9964 21.9794 75.6911 21.6585 75.469 21.2362C75.247 20.8138 75.136 20.3346 75.136 19.7944C75.136 19.2543 75.247 18.7425 75.469 18.3202C75.6911 17.8978 75.9964 17.5729 76.3849 17.3333C76.7735 17.0977 77.2215 16.9759 77.729 16.9759C78.2366 16.9759 78.7084 17.0896 79.089 17.317C79.4697 17.5445 79.767 17.8653 79.9891 18.2877C80.2111 18.7101 80.3221 19.1974 80.3221 19.7579C80.3221 20.3183 80.2151 20.8097 80.0049 21.2321V21.2362Z" fill="#31B96D"/>
<path d="M93.9101 4.04053H87.7168V27.7299H93.9101V4.04053Z" fill="#31B96D"/>
<path d="M106.356 12.6831C105.975 12.3947 105.555 12.147 105.075 11.9521C104.306 11.6393 103.469 11.481 102.565 11.481C101.11 11.481 99.8257 11.8302 98.7115 12.5328C97.5934 13.2354 96.7211 14.2101 96.0907 15.461C95.4603 16.7119 95.1431 18.1455 95.1431 19.7659C95.1431 21.3864 95.4603 22.8119 96.0907 24.0546C96.7211 25.2974 97.5974 26.2721 98.7115 26.9828C99.8257 27.6935 101.114 28.0509 102.565 28.0509C103.469 28.0509 104.31 27.8925 105.075 27.5798C105.551 27.3849 105.975 27.1371 106.356 26.8488V27.726H112.391V11.8059H106.356V12.6831ZM103.953 22.4829C103.469 22.4829 103.025 22.3652 102.625 22.1255C102.224 21.89 101.915 21.5651 101.693 21.1549C101.471 20.7447 101.36 20.2817 101.36 19.7619C101.36 19.242 101.475 18.7791 101.709 18.3689C101.939 17.9587 102.252 17.6338 102.641 17.3982C103.029 17.1627 103.477 17.0408 103.985 17.0408C104.492 17.0408 104.936 17.1586 105.329 17.3982C105.718 17.6338 106.019 17.9546 106.229 18.3526C106.439 18.7506 106.546 19.2217 106.546 19.7619C106.546 20.5619 106.308 21.2118 105.837 21.7194C105.361 22.2271 104.734 22.4789 103.957 22.4789L103.953 22.4829Z" fill="#31B96D"/>
<path d="M124.682 11.481C123.12 11.481 121.815 11.8708 120.765 12.6384V11.8018H114.571V27.722H120.765V19.1121C120.765 18.4014 120.923 17.8571 121.24 17.4794C121.558 17.1018 122.029 16.9149 122.664 16.9149C123.044 16.9149 123.373 16.9759 123.659 17.0936C123.944 17.2114 124.159 17.3576 124.305 17.5322L127.779 12.4841C127.461 12.1592 127.045 11.9115 126.53 11.7409C126.014 11.5703 125.396 11.481 124.682 11.481Z" fill="#31B96D"/>
<path d="M134.444 11.8057H128.25V27.7258H134.444V11.8057Z" fill="#31B96D"/>
<path d="M131.347 3.71582C130.439 3.71582 129.69 4.0326 129.087 4.67022C128.488 5.30784 128.187 6.0876 128.187 7.01763C128.187 7.94766 128.488 8.72742 129.087 9.36504C129.686 10.0027 130.439 10.3194 131.347 10.3194C132.255 10.3194 133.032 10.0027 133.623 9.36504C134.214 8.72742 134.507 7.94766 134.507 7.01763C134.507 6.0876 134.214 5.30784 133.623 4.67022C133.032 4.0326 132.275 3.71582 131.347 3.71582Z" fill="#31B96D"/>
<path d="M136.779 16.8538H142.183L136.244 23.8758V27.7258H150.68V22.6777H144.935L150.87 15.6557V11.8057H136.779V16.8538Z" fill="#31B96D"/>
<path d="M162.69 12.6831C162.309 12.3947 161.889 12.147 161.409 11.9521C160.64 11.6393 159.803 11.481 158.899 11.481C157.444 11.481 156.16 11.8302 155.046 12.5328C153.927 13.2354 153.055 14.2101 152.425 15.461C151.794 16.7119 151.477 18.1455 151.477 19.7659C151.477 21.3864 151.794 22.8119 152.425 24.0546C153.055 25.2974 153.931 26.2721 155.046 26.9828C156.16 27.6935 157.448 28.0509 158.899 28.0509C159.803 28.0509 160.644 27.8925 161.409 27.5798C161.885 27.3849 162.309 27.1371 162.69 26.8488V27.726H168.725V11.8059H162.69V12.6831ZM160.287 22.4829C159.803 22.4829 159.359 22.3652 158.959 22.1255C158.558 21.89 158.249 21.5651 158.027 21.1549C157.805 20.7447 157.694 20.2817 157.694 19.7619C157.694 19.242 157.809 18.7791 158.043 18.3689C158.273 17.9587 158.586 17.6338 158.975 17.3982C159.363 17.1627 159.811 17.0408 160.319 17.0408C160.826 17.0408 161.27 17.1586 161.663 17.3982C162.052 17.6338 162.353 17.9546 162.563 18.3526C162.773 18.7506 162.88 19.2217 162.88 19.7619C162.88 20.5619 162.642 21.2118 162.171 21.7194C161.695 22.2271 161.068 22.4789 160.291 22.4789L160.287 22.4829Z" fill="#31B96D"/>
<path d="M179.624 5.26709H173.431V11.8057H170.112V16.9838H173.431V27.7259H179.624V16.9838H182.939V11.8057H179.624V5.26709Z" fill="#31B96D"/>
<path d="M198.942 15.27C198.236 14.0638 197.261 13.1175 196.019 12.4393C194.778 11.7611 193.343 11.4199 191.721 11.4199C190.1 11.4199 188.605 11.7814 187.297 12.5043C185.992 13.2272 184.965 14.2141 184.216 15.4649C183.466 16.7158 183.094 18.1494 183.094 19.7699C183.094 21.3903 183.478 22.8605 184.248 24.1236C185.017 25.3866 186.083 26.3694 187.455 27.068C188.823 27.7706 190.413 28.1199 192.225 28.1199C193.637 28.1199 194.889 27.8924 195.984 27.4416C197.078 26.9868 198.014 26.3085 198.795 25.4029L195.698 22.2635C195.234 22.8037 194.723 23.1976 194.168 23.4453C193.609 23.6931 192.963 23.819 192.225 23.819C191.488 23.819 190.833 23.6687 190.33 23.3641C189.822 23.0636 189.438 22.6128 189.176 22.0198C189.14 21.9345 189.109 21.8452 189.077 21.7558L199.743 21.6827C199.85 21.2076 199.917 20.7933 199.949 20.4359C199.98 20.0785 199.996 19.7415 199.996 19.4166C199.996 17.8611 199.643 16.4843 198.938 15.2741L198.942 15.27ZM190.207 16.2082C190.671 15.8833 191.218 15.7208 191.848 15.7208C192.479 15.7208 192.966 15.8629 193.367 16.1432C193.767 16.4234 194.069 16.8377 194.267 17.39C194.315 17.524 194.358 17.6662 194.394 17.8205L189.061 17.8652C189.089 17.7758 189.117 17.6865 189.148 17.6012C189.39 16.996 189.743 16.5331 190.207 16.2082Z" fill="#31B96D"/>
<path d="M37.0603 17.1426C37.2506 26.9628 29.2137 35 19.6264 35H4.88079C3.50099 35 2.37891 33.8547 2.37891 32.4373V27.2755H11.5974C14.1984 27.2755 16.74 26.1789 18.5678 24.2661C20.3758 22.3776 21.3433 19.9043 21.2917 17.301C21.1886 12.0213 16.9104 7.72859 11.752 7.72859H2.37891V2.56266C2.37891 1.14934 3.50099 0 4.88079 0H19.9793C29.3009 0 36.874 7.6433 37.0603 17.1426Z" fill="#31B96D"/>
<path d="M11.7521 9.75928H1.10622C0.495619 9.75928 0 10.2669 0 10.8924V24.1118C0 24.7372 0.495619 25.2449 1.10622 25.2449H11.5975C15.84 25.2449 19.3965 21.6872 19.3133 17.3417C19.23 13.1383 15.8757 9.75928 11.7521 9.75928ZM14.5236 18.9743C14.3135 19.3926 14.0121 19.7175 13.6236 19.9449C13.231 20.1724 12.7751 20.2861 12.2477 20.2861C11.7204 20.2861 11.2961 20.1724 10.9036 19.9449C10.515 19.7175 10.2097 19.3926 9.98771 18.9743C9.76567 18.5519 9.65862 18.0727 9.65862 17.5325C9.65862 16.9924 9.76567 16.4807 9.98771 16.0624C10.2097 15.64 10.515 15.311 10.9036 15.0755C11.2961 14.8359 11.7442 14.7181 12.2477 14.7181C12.7513 14.7181 13.2271 14.8318 13.6077 15.0592C13.9844 15.2826 14.2857 15.6075 14.5078 16.0299C14.7298 16.4482 14.8368 16.9396 14.8368 17.5001C14.8368 18.0605 14.7338 18.5519 14.5236 18.9743Z" fill="#A4E766"/>
</svg>
